<?xml version="1.0" encoding="UTF-8"?>
<svg id="Layer_1" data-name="Layer 1" xmlns="http://www.w3.org/2000/svg" viewBox="0 0 925 230.67">
  <defs>
    <style>
      .cls-1 {
        fill: #fff;
      }

      .cls-2 {
        fill: #827e4a;
      }
    </style>
  </defs>
  <g>
    <rect class="cls-2" x="721.49" y=".68" width="203.51" height="203.51" rx="10.73" ry="10.73"/>
    <path class="cls-1" d="m890.22,78.69c-10.84,0-20.76,4.49-27.95,11.68-2.6,2.63-4.86,5.57-6.65,8.81-.78-4.02-1.82-7.97-3.04-11.82-2.06,2.63-3.82,5.13-5.06,7.06,1.99,7.63,3.07,15.67,3.07,23.9,0,10.43-1.69,20.43-4.83,29.78-2.26,6.72-5.23,13.1-8.85,19.04v-48.82c0-9.01,2.26-17.52,6.28-24.98,2.64-4.95,6.31-9.66,9.39-12.63,9.69-9.69,23.02-15.7,37.64-15.7,6.03,0,12.03.38,17.97,1.08v-6.89c-5.96-.68-11.96-1.05-17.97-1.05-16.41,0-31.36,6.72-42.27,17.52-1.99-4.29-4.29-8.41-6.85-12.36,13.07-11.72,30.32-18.84,49.12-18.84,4.23,0,8.45.17,12.65.48v-6.86c-4.21-.3-8.43-.47-12.65-.47-20.26,0-38.86,7.6-53.07,20.05-1.86-2.46-3.85-4.86-5.91-7.16-1.65,1.55-3.31,3.17-4.93,4.79,2.06,2.26,4.02,4.66,5.84,7.12-3.31,3.41-6.28,7.12-8.95,11.07-2.67-3.95-5.64-7.66-8.95-11.07,2.26-3.04,4.69-5.98,7.29-8.74l.5-.5c16.34-17.69,39.52-27.91,63.52-29.16v-6.83c-23.83,1.07-45.58,10.48-62.37,25.38-16.79-14.9-38.53-24.31-62.36-25.38v6.83c21.86,1.08,41.84,9.7,57.36,23.27-3.21,3.24-6.18,6.72-8.95,10.37-14.21-12.46-32.78-20.05-53.07-20.05-4.1,0-8.19.16-12.26.44v6.85c4.07-.29,8.16-.44,12.26-.44,18.8,0,36.06,7.12,49.12,18.84-2.53,3.95-4.83,8.07-6.85,12.36-10.9-10.8-25.86-17.52-42.27-17.52-6.05,0-12.08.38-18.07,1.07v6.89c5.98-.72,12.01-1.11,18.07-1.11,14.62,0,27.95,6.01,37.64,15.7.57.57,1.15,1.18,1.72,1.79-2.03,5.37-3.65,10.94-4.76,16.68-1.79-3.24-4.05-6.18-6.65-8.81-7.19-7.19-17.12-11.68-27.95-11.68-7.53,0-15.01.64-22.4,1.85v6.94c7.36-1.26,14.86-1.94,22.4-1.94,8.95,0,17.15,3.71,23.13,9.69,5.94,5.94,9.66,14.15,9.66,23.09,0,11.14,1.82,21.88,5.2,31.94,3.51,10.43,8.64,20.12,15.16,28.73,4.01,4.32,8.69,7.42,13.9,7.42s9.84-3.01,13.88-7.42c6.48-8.61,11.61-18.3,15.13-28.73,3.38-10.06,5.2-20.8,5.2-31.94,0-8.95,3.71-17.15,9.69-23.09,5.94-5.98,14.15-9.69,23.09-9.69,7.45,0,14.83.63,22.08,1.86v-6.91c-7.29-1.18-14.66-1.8-22.08-1.8Zm-84.03,6.35c-1.11,2.77-2.16,5.81-2.94,8.41,3.98,7.43,6.25,15.94,6.25,24.88v48.82c-3.61-5.94-6.58-12.32-8.84-19.04-3.14-9.35-4.83-19.35-4.83-29.78,0-8.71,1.18-17.15,3.44-25.15,2.57-9.82,5.71-16.51,11.04-24.95,3.38,3.65,6.35,7.6,8.95,11.82-2.9,5.3-5.2,11.01-6.85,16.95-1.62-4.22-3.71-8.24-6.21-11.95Zm27.82,11.95c-1.15-4.19-2.67-8.27-4.46-12.15-1.32,2.8-2.5,5.71-3.92,8.41,2.84,7.83,4.42,16.31,4.42,25.09v54.11c-4.57,5.13-9.14,5.14-13.71,0v-54.11c0-13.57,4.86-31.7,13.64-42.57,1.86-2.63,3.92-5.13,6.11-7.53,2.6,4.15,4.9,8.51,6.85,13.03-3.71,4.73-6.75,10.03-8.95,15.73Z"/>
    <path class="cls-1" d="m890.22,78.69c-10.84,0-20.76,4.49-27.95,11.68-2.6,2.63-4.86,5.57-6.65,8.81-.78-4.02-1.82-7.97-3.04-11.82-2.06,2.63-3.82,5.13-5.06,7.06,1.99,7.63,3.07,15.67,3.07,23.9,0,10.43-1.69,20.43-4.83,29.78-2.26,6.72-5.23,13.1-8.85,19.04v-48.82c0-9.01,2.26-17.52,6.28-24.98,2.64-4.95,6.31-9.66,9.39-12.63,9.69-9.69,23.02-15.7,37.64-15.7,6.03,0,12.03.38,17.97,1.08v-6.89c-5.96-.68-11.96-1.05-17.97-1.05-16.41,0-31.36,6.72-42.27,17.52-1.99-4.29-4.29-8.41-6.85-12.36,13.07-11.72,30.32-18.84,49.12-18.84,4.23,0,8.45.17,12.65.48v-6.86c-4.21-.3-8.43-.47-12.65-.47-20.26,0-38.86,7.6-53.07,20.05-1.86-2.46-3.85-4.86-5.91-7.16-1.65,1.55-3.31,3.17-4.93,4.79,2.06,2.26,4.02,4.66,5.84,7.12-3.31,3.41-6.28,7.12-8.95,11.07-2.67-3.95-5.64-7.66-8.95-11.07,2.26-3.04,4.69-5.98,7.29-8.74l.5-.5c16.34-17.69,39.52-27.91,63.52-29.16v-6.83c-23.83,1.07-45.58,10.48-62.37,25.38-16.79-14.9-38.53-24.31-62.36-25.38v6.83c21.86,1.08,41.84,9.7,57.36,23.27-3.21,3.24-6.18,6.72-8.95,10.37-14.21-12.46-32.78-20.05-53.07-20.05-4.1,0-8.19.16-12.26.44v6.85c4.07-.29,8.16-.44,12.26-.44,18.8,0,36.06,7.12,49.12,18.84-2.53,3.95-4.83,8.07-6.85,12.36-10.9-10.8-25.86-17.52-42.27-17.52-6.05,0-12.08.38-18.07,1.07v6.89c5.98-.72,12.01-1.11,18.07-1.11,14.62,0,27.95,6.01,37.64,15.7.57.57,1.15,1.18,1.72,1.79-2.03,5.37-3.65,10.94-4.76,16.68-1.79-3.24-4.05-6.18-6.65-8.81-7.19-7.19-17.12-11.68-27.95-11.68-7.53,0-15.01.64-22.4,1.85v6.94c7.36-1.26,14.86-1.94,22.4-1.94,8.95,0,17.15,3.71,23.13,9.69,5.94,5.94,9.66,14.15,9.66,23.09,0,11.14,1.82,21.88,5.2,31.94,3.51,10.43,8.64,20.12,15.16,28.73,4.01,4.32,8.69,7.42,13.9,7.42s9.84-3.01,13.88-7.42c6.48-8.61,11.61-18.3,15.13-28.73,3.38-10.06,5.2-20.8,5.2-31.94,0-8.95,3.71-17.15,9.69-23.09,5.94-5.98,14.15-9.69,23.09-9.69,7.45,0,14.83.63,22.08,1.86v-6.91c-7.29-1.18-14.66-1.8-22.08-1.8Zm-84.03,6.35c-1.11,2.77-2.16,5.81-2.94,8.41,3.98,7.43,6.25,15.94,6.25,24.88v48.82c-3.61-5.94-6.58-12.32-8.84-19.04-3.14-9.35-4.83-19.35-4.83-29.78,0-8.71,1.18-17.15,3.44-25.15,2.57-9.82,5.71-16.51,11.04-24.95,3.38,3.65,6.35,7.6,8.95,11.82-2.9,5.3-5.2,11.01-6.85,16.95-1.62-4.22-3.71-8.24-6.21-11.95Zm27.82,11.95c-1.15-4.19-2.67-8.27-4.46-12.15-1.32,2.8-2.5,5.71-3.92,8.41,2.84,7.83,4.42,16.31,4.42,25.09v54.11c-4.57,5.13-9.14,5.14-13.71,0v-54.11c0-13.57,4.86-31.7,13.64-42.57,1.86-2.63,3.92-5.13,6.11-7.53,2.6,4.15,4.9,8.51,6.85,13.03-3.71,4.73-6.75,10.03-8.95,15.73Z"/>
  </g>
  <g>
    <path class="cls-2" d="m69.08,69.57v8.19h-1.35c-1.56,0-2.93-.16-4.1-.5-1.17-.33-2.33-.85-3.46-1.57-.12,7.26-2.13,12.96-6.03,17.1-3.9,4.14-10.05,6.21-18.45,6.21s-15.36-2.24-19.8-6.71c-4.44-4.47-6.66-10.43-6.66-17.87,0-4.68.9-8.8,2.7-12.38,1.8-3.57,4.53-5.35,8.19-5.35,2.34,0,4.38.69,6.12,2.07-1.44,1.08-2.9,3.08-4.36,5.99-1.47,2.91-2.21,6.34-2.21,10.3,0,5.34,1.6,9.3,4.81,11.88,3.21,2.58,7.06,3.87,11.56,3.87,5.34,0,9-1.62,10.98-4.86,1.98-3.24,2.97-7.02,2.97-11.34V31.59c0-2.58-.44-4.5-1.31-5.76-.87-1.26-1.94-2.28-3.19-3.06.18-.9.87-1.86,2.07-2.88,1.2-1.02,2.7-1.53,4.5-1.53,2.34,0,4.27.9,5.81,2.7,1.53,1.8,2.29,4.38,2.29,7.74v40.77h8.91Z"/>
    <path class="cls-2" d="m69.08,69.57h13.77v8.19h-13.77v-8.19Z"/>
    <path class="cls-2" d="m82.85,69.57h13.77v8.19h-13.77v-8.19Z"/>
    <path class="cls-2" d="m128.12,69.57v8.19h-11.16c-3.24,0-6.12-.93-8.64-2.79-1.26.9-2.49,1.58-3.69,2.02-1.2.45-2.58.71-4.14.77h-3.87v-8.19h3.87c2.28-.06,4.47-.72,6.57-1.98v-27.81c0-1.56.42-2.82,1.26-3.78.84-.96,2.13-1.44,3.87-1.44s2.94.48,3.78,1.44c.84.96,1.26,2.25,1.26,3.87v23.22c0,1.92.27,3.48.81,4.68.54,1.2,1.35,1.8,2.43,1.8h7.65Zm-26.82,25.15c-1.08-1.11-1.62-2.42-1.62-3.92s.54-2.81,1.62-3.92c1.08-1.11,2.37-1.66,3.87-1.66s2.88.54,3.96,1.62c1.08,1.08,1.62,2.4,1.62,3.96s-.54,2.88-1.62,3.96c-1.08,1.08-2.4,1.62-3.96,1.62s-2.79-.56-3.87-1.67Zm13.99.04c-1.11-1.08-1.67-2.4-1.67-3.96s.55-2.81,1.67-3.92c1.11-1.11,2.41-1.66,3.92-1.66s2.86.54,3.92,1.62c1.05,1.08,1.58,2.4,1.58,3.96s-.53,2.88-1.58,3.96c-1.05,1.08-2.36,1.62-3.92,1.62s-2.81-.54-3.92-1.62Z"/>
    <path class="cls-2" d="m176.99,69.57v8.19h-3.06c-3.72,0-6.72-.93-9-2.79-2.76,1.86-6,2.79-9.72,2.79h-27.09v-8.19h24.12c1.62,0,3.22-.39,4.81-1.17,1.59-.78,2.95-2.14,4.09-4.1,1.14-1.95,1.71-4.51,1.71-7.69,0-4.92-1.49-8.47-4.46-10.67-2.97-2.19-7.22-3.29-12.74-3.29h-7.29c-2.4,0-4.23-.7-5.49-2.11-1.26-1.41-1.95-3.2-2.07-5.35-.06-.96.03-1.74.27-2.34.24-.6.54-.93.9-.99.48.78,1.45,1.47,2.92,2.07,1.47.6,3.31.9,5.54.9l4.5-.09,5.04-.18c4.32,0,8.23.85,11.75,2.57,3.51,1.71,6.28,4.22,8.32,7.51,2.04,3.3,3.06,7.2,3.06,11.7,0,2.22-.27,4.49-.81,6.79-.54,2.31-1.35,4.46-2.43,6.44h7.11Zm-28.31-42.62c-1.17-1.17-1.75-2.56-1.75-4.19s.58-3.09,1.75-4.23c1.17-1.14,2.59-1.71,4.27-1.71s3.02.57,4.19,1.71c1.17,1.14,1.75,2.55,1.75,4.23s-.58,3.02-1.75,4.19c-1.17,1.17-2.56,1.76-4.19,1.76s-3.1-.58-4.27-1.76Z"/>
    <path class="cls-2" d="m208.48,69.57v8.19h-11.16c-3.24,0-6.12-.93-8.64-2.79-1.26.9-2.49,1.58-3.69,2.02-1.2.45-2.58.71-4.14.77h-3.87v-8.19h3.87c2.28-.06,4.47-.72,6.57-1.98v-27.81c0-1.56.42-2.82,1.26-3.78.84-.96,2.13-1.44,3.87-1.44s2.94.48,3.78,1.44c.84.96,1.26,2.25,1.26,3.87v23.22c0,1.92.27,3.48.81,4.68.54,1.2,1.35,1.8,2.43,1.8h7.65Zm-20.12-42.62c-1.17-1.17-1.75-2.56-1.75-4.19s.58-3.09,1.75-4.23c1.17-1.14,2.59-1.71,4.28-1.71s3.01.57,4.19,1.71c1.17,1.14,1.75,2.55,1.75,4.23s-.58,3.02-1.75,4.19-2.57,1.76-4.19,1.76-3.1-.58-4.28-1.76Z"/>
    <path class="cls-2" d="m208.48,69.57h13.77v8.19h-13.77v-8.19Z"/>
    <path class="cls-2" d="m222.25,69.57h13.77v8.19h-13.77v-8.19Z"/>
    <path class="cls-2" d="m236.02,69.57h5.94c1.62,0,2.75-.69,3.38-2.07.63-1.38.94-3.3.94-5.76v-30.15c0-2.64-.44-4.59-1.3-5.85-.87-1.26-1.94-2.25-3.2-2.97.18-.9.88-1.86,2.12-2.88,1.23-1.02,2.75-1.53,4.54-1.53,2.34,0,4.27.9,5.81,2.7,1.53,1.8,2.29,4.38,2.29,7.74v33.21c-.06,4.8-1.21,8.63-3.46,11.48-2.25,2.85-5.3,4.27-9.14,4.27h-7.92v-8.19Z"/>
    <path class="cls-2" d="m271.4,71.82V31.59c0-2.58-.44-4.5-1.31-5.76-.87-1.26-1.94-2.28-3.19-3.06.18-.84.87-1.78,2.07-2.83,1.2-1.05,2.73-1.57,4.59-1.57,2.34,0,4.26.92,5.76,2.75,1.5,1.83,2.25,4.4,2.25,7.69v43.11c0,3.9-1.71,5.85-5.13,5.85s-5.04-1.98-5.04-5.94Z"/>
    <path class="cls-2" d="m355.81,69.57v8.19h-8.19c-2.94,0-5.46-.6-7.56-1.8-2.4,1.32-5.34,1.98-8.82,1.98-5.76,0-10.01-1.72-12.74-5.18-2.73-3.45-4.09-8.86-4.09-16.25,0-6.06.87-10.71,2.61-13.95,1.74-3.24,3.96-5.38,6.66-6.44,2.7-1.05,5.91-1.58,9.63-1.58s7.05.51,9.45,1.53c2.4,1.02,4.24,2.91,5.53,5.67,1.29,2.76,1.94,6.72,1.94,11.88v15.93h5.58Zm-34.47-42.75c-1.08-1.08-1.62-2.37-1.62-3.87s.54-2.89,1.62-4c1.08-1.11,2.37-1.67,3.87-1.67s2.88.56,3.96,1.67c1.08,1.11,1.62,2.45,1.62,4s-.54,2.87-1.62,3.92c-1.08,1.05-2.4,1.58-3.96,1.58s-2.79-.54-3.87-1.62Zm4.86,38.56c1.02,2.79,3.15,4.19,6.39,4.19h7.38v-19.53c0-2.58-.68-4.44-2.03-5.58-1.35-1.14-3.05-1.71-5.08-1.71-2.94,0-5.04,1.11-6.3,3.33-1.26,2.22-1.89,5.58-1.89,10.08,0,3.36.51,6.44,1.53,9.23Zm9.09-38.56c-1.08-1.08-1.62-2.37-1.62-3.87s.54-2.89,1.62-4c1.08-1.11,2.4-1.67,3.96-1.67s2.86.56,3.92,1.67c1.05,1.11,1.58,2.45,1.58,4s-.53,2.87-1.58,3.92c-1.05,1.05-2.36,1.58-3.92,1.58s-2.88-.54-3.96-1.62Z"/>
    <path class="cls-2" d="m355.81,69.57h13.77v8.19h-13.77v-8.19Z"/>
    <path class="cls-2" d="m369.58,69.57h13.77v8.19h-13.77v-8.19Z"/>
    <path class="cls-2" d="m414.85,69.57v8.19h-11.16c-3.24,0-6.12-.93-8.64-2.79-1.26.9-2.49,1.58-3.69,2.02-1.2.45-2.58.71-4.14.77h-3.87v-8.19h3.87c2.28-.06,4.47-.72,6.57-1.98v-27.81c0-1.56.42-2.82,1.26-3.78.84-.96,2.13-1.44,3.87-1.44s2.94.48,3.78,1.44c.84.96,1.26,2.25,1.26,3.87v23.22c0,1.92.27,3.48.81,4.68.54,1.2,1.35,1.8,2.43,1.8h7.65Zm-26.82,25.15c-1.08-1.11-1.62-2.42-1.62-3.92s.54-2.81,1.62-3.92c1.08-1.11,2.37-1.66,3.87-1.66s2.88.54,3.96,1.62c1.08,1.08,1.62,2.4,1.62,3.96s-.54,2.88-1.62,3.96c-1.08,1.08-2.4,1.62-3.96,1.62s-2.79-.56-3.87-1.67Zm13.99.04c-1.11-1.08-1.67-2.4-1.67-3.96s.55-2.81,1.67-3.92c1.11-1.11,2.41-1.66,3.92-1.66s2.86.54,3.92,1.62c1.05,1.08,1.58,2.4,1.58,3.96s-.53,2.88-1.58,3.96c-1.05,1.08-2.36,1.62-3.92,1.62s-2.81-.54-3.92-1.62Z"/>
    <path class="cls-2" d="m462.38,69.57v8.19h-3.96c-3.36,0-6.3-.84-8.82-2.52-2.58,1.8-5.94,2.7-10.08,2.7-3.54,0-6.51-.66-8.91-1.98-2.1,1.2-4.62,1.8-7.56,1.8h-8.19v-8.19h5.58v-15.93c0-5.16.64-9.12,1.94-11.88,1.29-2.76,3.13-4.65,5.53-5.67,2.4-1.02,5.55-1.53,9.45-1.53s6.93.53,9.63,1.58c2.7,1.05,4.92,3.19,6.66,6.44,1.74,3.24,2.61,7.89,2.61,13.95,0,5.34-.72,9.69-2.16,13.05h8.28Zm-17.87-4.23c1.05-2.82,1.58-5.88,1.58-9.18,0-4.5-.65-7.86-1.94-10.08-1.29-2.22-3.41-3.33-6.34-3.33-2.04,0-3.74.57-5.08,1.71-1.35,1.14-2.03,3-2.03,5.58v19.53h7.38c3.24,0,5.38-1.41,6.43-4.23Z"/>
    <path class="cls-2" d="m462.38,69.57h7.38c2.7,0,4.66-1.41,5.9-4.23,1.23-2.82,1.85-6.21,1.85-10.17s-.51-7.21-1.53-9.77c-1.02-2.55-2.76-4.84-5.22-6.89.24-.96.88-1.86,1.94-2.7,1.05-.84,2.5-1.26,4.36-1.26,3.6,0,6.27,1.68,8.01,5.04,1.74,3.36,2.61,7.71,2.61,13.05,0,4.32-.6,8.39-1.8,12.19-1.2,3.81-3.17,6.92-5.9,9.31-2.73,2.4-6.2,3.6-10.4,3.6h-7.2v-8.19Zm3.6,25.15c-1.08-1.11-1.62-2.42-1.62-3.92s.54-2.81,1.62-3.92c1.08-1.11,2.37-1.66,3.87-1.66s2.88.54,3.96,1.62c1.08,1.08,1.62,2.4,1.62,3.96s-.54,2.88-1.62,3.96-2.4,1.62-3.96,1.62-2.79-.56-3.87-1.67Zm14,.04c-1.11-1.08-1.67-2.4-1.67-3.96s.55-2.81,1.67-3.92c1.11-1.11,2.41-1.66,3.91-1.66s2.86.54,3.92,1.62c1.05,1.08,1.58,2.4,1.58,3.96s-.53,2.88-1.58,3.96c-1.05,1.08-2.36,1.62-3.92,1.62s-2.81-.54-3.91-1.62Z"/>
    <path class="cls-2" d="m523.4,37.26c3,1.8,5.45,4.26,7.33,7.38,1.89,3.12,2.83,6.57,2.83,10.35,0,2.94-.56,6.17-1.67,9.67-1.11,3.51-3.01,6.57-5.71,9.18-2.7,2.61-6.24,3.92-10.62,3.92h-13.5c-1.2,0-2.04-.43-2.52-1.31-.48-.87-.72-1.78-.72-2.74,0-1.02.25-1.96.77-2.83.51-.87,1.45-1.31,2.83-1.31h5.31c5.4,0,9.34-1.31,11.83-3.92,2.49-2.61,3.73-5.95,3.73-10.04,0-3.66-.87-6.73-2.61-9.23-1.74-2.49-3.87-3.88-6.39-4.18-1.5.42-2.7,1.26-3.6,2.52-.9,1.26-1.35,3.06-1.35,5.4-1.2.36-2.46.54-3.78.54-.6,0-1.02-.03-1.26-.09-1.38-.12-2.55-.69-3.51-1.71-.96-1.02-1.44-2.43-1.44-4.23,0-2.28.79-4.19,2.38-5.71,1.59-1.53,3.52-2.64,5.81-3.33,2.28-.69,4.44-1.04,6.48-1.04,3.24,0,6.36.9,9.36,2.7Zm-7.2,4.68c-.42,0-.72.03-.9.09l.9-.09Z"/>
    <path class="cls-2" d="m551.21,73.53c-2.22-2.82-3.36-6.63-3.42-11.43v-30.51c0-2.58-.44-4.5-1.31-5.76-.87-1.26-1.94-2.28-3.19-3.06.18-.84.87-1.78,2.07-2.83,1.2-1.05,2.73-1.57,4.59-1.57,2.34,0,4.26.92,5.76,2.75,1.5,1.83,2.25,4.4,2.25,7.69v33.03c0,2.28.48,4.14,1.44,5.58.96,1.44,2.34,2.16,4.14,2.16h3.78v8.19h-7.02c-3.84,0-6.87-1.41-9.09-4.23Z"/>
    <path class="cls-2" d="m567.31,69.57h13.77v8.19h-13.77v-8.19Z"/>
    <path class="cls-2" d="m581.08,69.57h13.77v8.19h-13.77v-8.19Z"/>
    <path class="cls-2" d="m594.85,69.57h32.04c2.1,0,3.72-.66,4.86-1.98,1.14-1.32,1.71-3.03,1.71-5.13,0-2.28-.72-4.06-2.16-5.35-1.44-1.29-3.69-1.94-6.75-1.94h-9.27c-4.56,0-8.06-1.33-10.49-4.01-2.43-2.67-3.65-6.34-3.65-11.02,0-5.1,1.58-9,4.73-11.7,3.15-2.7,8.17-4.05,15.08-4.05,3.54,0,7.2.09,10.98.27,2.28,0,4.12-.3,5.54-.9,1.41-.6,2.41-1.29,3.01-2.07.3.12.57.4.81.85.24.45.36,1.1.36,1.94,0,2.04-.65,3.9-1.93,5.58-1.29,1.68-3.14,2.52-5.54,2.52l-12.6-.09c-6.78,0-10.17,2.46-10.17,7.38,0,2.16.61,3.87,1.84,5.13,1.23,1.26,3.02,1.89,5.35,1.89h7.11c11.94,0,17.91,5.28,17.91,15.84,0,4.62-1.12,8.28-3.38,10.98-2.25,2.7-5.48,4.05-9.67,4.05h-35.73v-8.19Z"/>
    <path class="cls-2" d="m651.46,18.09c0-.9.36-1.62,1.08-2.16.72-.54,1.77-.75,3.15-.63-.9-.54-1.7-1.42-2.38-2.66-.69-1.23-1.04-2.56-1.04-4,0-2.28.84-4.29,2.52-6.03,1.68-1.74,4.05-2.61,7.11-2.61,2.04,0,3.52.38,4.46,1.12.93.75,1.4,1.79,1.4,3.1,0,1.02-.26,1.77-.77,2.25-.51.48-1.16.72-1.94.72-.66,0-1.29-.15-1.89-.45.06-.9-.18-1.71-.72-2.43-.54-.72-1.26-1.11-2.16-1.17-.54.3-1.03.89-1.48,1.75-.45.87-.67,1.85-.67,2.92,0,1.98.64,3.5,1.94,4.55,1.29,1.05,2.83,1.57,4.63,1.57.66,0,1.32-.06,1.98-.18.66-.12,1.11-.21,1.35-.27.66,0,1.15.21,1.48.63.33.42.5.93.5,1.53,0,.54-.12,1.04-.36,1.48-.24.45-.57.68-.99.68-4.32.36-7.98.74-10.98,1.12-3,.39-4.56.98-4.68,1.75-1.02-.66-1.53-1.53-1.53-2.61Zm7.02,53.73v-34.74c0-2.58-.44-4.5-1.31-5.76-.87-1.26-1.94-2.28-3.19-3.06.18-.84.87-1.78,2.07-2.83,1.2-1.05,2.73-1.58,4.59-1.58,2.34,0,4.26.92,5.76,2.75,1.5,1.83,2.25,4.4,2.25,7.69v37.62c0,3.9-1.71,5.85-5.13,5.85s-5.04-1.98-5.04-5.94Z"/>
    <path class="cls-2" d="m47.25,177.57v8.19h-8.19c-2.94,0-5.46-.6-7.56-1.8-2.4,1.32-5.34,1.98-8.82,1.98-5.76,0-10.01-1.72-12.74-5.18-2.73-3.45-4.09-8.86-4.09-16.25,0-6.06.87-10.71,2.61-13.95,1.74-3.24,3.96-5.38,6.66-6.44,2.7-1.05,5.91-1.58,9.63-1.58s7.05.51,9.45,1.53c2.4,1.02,4.24,2.91,5.53,5.67,1.29,2.76,1.94,6.72,1.94,11.88v15.93h5.58Zm-34.47-42.75c-1.08-1.08-1.62-2.37-1.62-3.87s.54-2.89,1.62-4c1.08-1.11,2.37-1.67,3.87-1.67s2.88.56,3.96,1.67c1.08,1.11,1.62,2.45,1.62,4s-.54,2.87-1.62,3.92c-1.08,1.05-2.4,1.58-3.96,1.58s-2.79-.54-3.87-1.62Zm4.86,38.56c1.02,2.79,3.15,4.19,6.39,4.19h7.38v-19.53c0-2.58-.68-4.44-2.03-5.58-1.35-1.14-3.05-1.71-5.08-1.71-2.94,0-5.04,1.11-6.3,3.33-1.26,2.22-1.89,5.58-1.89,10.08,0,3.36.51,6.44,1.53,9.23Zm9.09-38.56c-1.08-1.08-1.62-2.37-1.62-3.87s.54-2.89,1.62-4c1.08-1.11,2.4-1.67,3.96-1.67s2.86.56,3.92,1.67c1.05,1.11,1.58,2.45,1.58,4s-.53,2.87-1.58,3.92c-1.05,1.05-2.36,1.58-3.92,1.58s-2.88-.54-3.96-1.62Z"/>
    <path class="cls-2" d="m78.75,177.57v8.19h-11.16c-3.24,0-6.12-.93-8.64-2.79-1.26.9-2.49,1.58-3.69,2.02-1.2.45-2.58.71-4.14.77h-3.87v-8.19h3.87c2.28-.06,4.47-.72,6.57-1.98v-27.81c0-1.56.42-2.82,1.26-3.78.84-.96,2.13-1.44,3.87-1.44s2.94.48,3.78,1.44c.84.96,1.26,2.25,1.26,3.87v23.22c0,1.92.27,3.48.81,4.68.54,1.2,1.35,1.8,2.43,1.8h7.65Zm-26.82,25.15c-1.08-1.11-1.62-2.42-1.62-3.92s.54-2.81,1.62-3.92c1.08-1.11,2.37-1.66,3.87-1.66s2.88.54,3.96,1.62c1.08,1.08,1.62,2.4,1.62,3.96s-.54,2.88-1.62,3.96c-1.08,1.08-2.4,1.62-3.96,1.62s-2.79-.56-3.87-1.67Zm13.99.04c-1.11-1.08-1.67-2.4-1.67-3.96s.55-2.81,1.67-3.92c1.11-1.11,2.41-1.66,3.92-1.66s2.86.54,3.92,1.62c1.05,1.08,1.58,2.4,1.58,3.96s-.53,2.88-1.58,3.96c-1.05,1.08-2.36,1.62-3.92,1.62s-2.81-.54-3.92-1.62Z"/>
    <path class="cls-2" d="m78.75,177.57h7.38c2.7,0,4.66-1.41,5.9-4.23,1.23-2.82,1.85-6.21,1.85-10.17s-.51-7.21-1.53-9.77c-1.02-2.55-2.76-4.84-5.22-6.89.24-.96.88-1.86,1.94-2.7,1.05-.84,2.5-1.26,4.36-1.26,3.6,0,6.27,1.68,8.01,5.04,1.74,3.36,2.61,7.71,2.61,13.05,0,4.32-.6,8.39-1.8,12.19-1.2,3.81-3.17,6.92-5.9,9.31-2.73,2.4-6.2,3.6-10.4,3.6h-7.2v-8.19Zm10.48-42.62c-1.17-1.17-1.75-2.56-1.75-4.19s.58-3.09,1.75-4.23c1.17-1.14,2.59-1.71,4.27-1.71s3.02.57,4.19,1.71c1.17,1.14,1.76,2.55,1.76,4.23s-.58,3.02-1.76,4.19c-1.17,1.17-2.56,1.76-4.19,1.76s-3.1-.58-4.27-1.76Z"/>
    <path class="cls-2" d="m144.09,144.09c2.4,1.02,4.24,2.91,5.53,5.67,1.29,2.76,1.94,6.72,1.94,11.88v29.16c0,3.78-1.08,7.32-3.24,10.62-2.16,3.3-6.06,4.95-11.7,4.95-3.96,0-6.95-.94-8.96-2.83-2.01-1.89-3.05-4-3.1-6.34,1.02.6,2.26,1.15,3.73,1.67,1.47.51,2.93.76,4.37.76,2.46,0,4.51-.63,6.17-1.89,1.65-1.26,2.48-3,2.48-5.22l.09-6.75-8.82.18c-5.76,0-10.01-1.72-12.74-5.18-2.73-3.45-4.09-8.86-4.09-16.25,0-6.06.87-10.71,2.61-13.95,1.74-3.24,3.96-5.38,6.66-6.44,2.7-1.05,5.91-1.58,9.63-1.58s7.05.51,9.45,1.53Zm-10.17,33.48h7.38v-19.53c0-2.58-.68-4.44-2.03-5.58-1.35-1.14-3.05-1.71-5.08-1.71-2.94,0-5.04,1.11-6.3,3.33-1.26,2.22-1.89,5.58-1.89,10.08,0,8.94,2.64,13.41,7.92,13.41Z"/>
    <path class="cls-2" d="m188.91,185.76h-8.82v5.22c0,3.66-1.08,7.14-3.24,10.44-2.16,3.3-6.03,4.95-11.61,4.95-2.88,0-5.22-.49-7.02-1.48-1.8-.99-3.07-2.19-3.83-3.6-.75-1.41-1.06-2.75-.94-4,1.02.66,2.28,1.21,3.78,1.67,1.5.45,2.94.67,4.32.67,2.52,0,4.54-.66,6.07-1.98,1.53-1.32,2.29-2.97,2.29-4.95v-45.27c0-1.56.48-2.76,1.44-3.6.96-.84,2.19-1.26,3.69-1.26s2.71.42,3.65,1.26c.93.84,1.4,2.07,1.4,3.69v30.06h8.82v8.19Z"/>
    <path class="cls-2" d="m220.41,177.57v8.19h-11.16c-3.24,0-6.12-.93-8.64-2.79-1.26.9-2.49,1.58-3.69,2.02-1.2.45-2.58.71-4.14.77h-3.87v-8.19h3.87c2.28-.06,4.47-.72,6.57-1.98v-27.81c0-1.56.42-2.82,1.26-3.78.84-.96,2.13-1.44,3.87-1.44s2.94.48,3.78,1.44c.84.96,1.26,2.25,1.26,3.87v23.22c0,1.92.27,3.48.81,4.68.54,1.2,1.35,1.8,2.43,1.8h7.65Zm-26.82-42.75c-1.08-1.08-1.62-2.37-1.62-3.87s.54-2.89,1.62-4c1.08-1.11,2.37-1.67,3.87-1.67s2.88.56,3.96,1.67c1.08,1.11,1.62,2.45,1.62,4s-.54,2.87-1.62,3.92c-1.08,1.05-2.4,1.58-3.96,1.58s-2.79-.54-3.87-1.62Zm13.95,0c-1.08-1.08-1.62-2.37-1.62-3.87s.54-2.89,1.62-4c1.08-1.11,2.4-1.67,3.96-1.67s2.86.56,3.92,1.67c1.05,1.11,1.58,2.45,1.58,4s-.53,2.87-1.58,3.92c-1.05,1.05-2.36,1.58-3.92,1.58s-2.88-.54-3.96-1.62Z"/>
    <path class="cls-2" d="m289.62,177.57v8.19h-20.7c-2.46,0-4.68-.42-6.66-1.26-1.8.84-3.84,1.26-6.12,1.26h-35.73v-8.19h32.04c2.1,0,3.72-.66,4.86-1.98,1.14-1.32,1.71-3.03,1.71-5.13,0-2.28-.72-4.06-2.16-5.35-1.44-1.29-3.69-1.94-6.75-1.94h-9.27c-4.56,0-8.06-1.33-10.49-4.01-2.43-2.67-3.65-6.34-3.65-11.02,0-5.1,1.58-9,4.73-11.7,3.15-2.7,8.17-4.05,15.08-4.05,3.54,0,7.2.09,10.98.27,2.28,0,4.12-.3,5.54-.9,1.41-.6,2.41-1.29,3.01-2.07.3.12.57.4.81.85.24.45.36,1.1.36,1.94,0,2.04-.65,3.9-1.93,5.58-1.29,1.68-3.14,2.52-5.54,2.52l-12.6-.09c-6.78,0-10.17,2.46-10.17,7.38,0,2.16.61,3.87,1.84,5.13,1.23,1.26,3.02,1.89,5.35,1.89h7.11c11.94,0,17.91,5.28,17.91,15.84,0,2.76-.33,5.04-.99,6.84h21.42Z"/>
    <path class="cls-2" d="m289.62,177.57h5.94c1.62,0,2.75-.69,3.38-2.07.63-1.38.94-3.3.94-5.76v-30.15c0-2.64-.44-4.59-1.3-5.85-.87-1.26-1.94-2.25-3.2-2.97.18-.9.88-1.86,2.12-2.88,1.23-1.02,2.75-1.53,4.54-1.53,2.34,0,4.27.9,5.81,2.7,1.53,1.8,2.29,4.38,2.29,7.74v33.21c-.06,4.8-1.21,8.63-3.46,11.48-2.25,2.85-5.3,4.27-9.14,4.27h-7.92v-8.19Z"/>
    <path class="cls-2" d="m321.53,184.63c-.69-.75-1.04-1.75-1.04-3.02s.34-2.17,1.04-2.92c.69-.75,1.57-1.12,2.65-1.12h10.89v-25.29c0-2.64-.44-4.59-1.31-5.85-.87-1.26-1.94-2.25-3.19-2.97.18-.9.88-1.86,2.11-2.88,1.23-1.02,2.75-1.53,4.55-1.53,2.34,0,4.27.9,5.8,2.7,1.53,1.8,2.29,4.38,2.29,7.74v28.08h9c1.8,0,3.18-.73,4.14-2.21.96-1.47,1.44-3.34,1.44-5.62v-30.15c0-2.64-.44-4.59-1.3-5.85-.87-1.26-1.94-2.25-3.2-2.97.18-.9.88-1.86,2.12-2.88,1.23-1.02,2.74-1.53,4.54-1.53,2.34,0,4.27.9,5.8,2.7,1.53,1.8,2.3,4.38,2.3,7.74v33.21c-.06,4.8-1.22,8.63-3.47,11.48-2.25,2.85-5.3,4.27-9.13,4.27h-33.48c-1.02,0-1.88-.37-2.56-1.12Zm7.69,23.62c0-.84.36-1.53,1.08-2.07.72-.54,1.77-.78,3.15-.72-.84-.54-1.61-1.41-2.29-2.61-.69-1.2-1.04-2.52-1.04-3.96,0-2.34.84-4.37,2.52-6.08,1.68-1.71,4.08-2.56,7.2-2.56,1.98,0,3.45.37,4.41,1.12.96.75,1.44,1.75,1.44,3.02,0,1.02-.27,1.77-.81,2.25-.54.48-1.2.72-1.98.72-.66,0-1.29-.15-1.89-.45.06-.9-.18-1.71-.72-2.43s-1.26-1.11-2.16-1.17c-.54.36-1.04.96-1.49,1.8-.45.84-.67,1.83-.67,2.97,0,1.92.64,3.42,1.94,4.5,1.29,1.08,2.83,1.62,4.63,1.62.72,0,1.41-.08,2.07-.23.66-.15,1.08-.23,1.26-.23.66,0,1.15.21,1.49.63.33.42.49.93.49,1.53,0,.54-.12,1.02-.36,1.44-.24.42-.57.63-.99.63-4.08.3-7.69.66-10.84,1.08-3.15.42-4.79,1.02-4.91,1.8-1.02-.66-1.53-1.53-1.53-2.61Z"/>
    <path class="cls-2" d="m385.02,179.82v-40.23c0-2.58-.44-4.5-1.31-5.76-.87-1.26-1.94-2.28-3.19-3.06.18-.84.87-1.78,2.07-2.83,1.2-1.05,2.73-1.57,4.59-1.57,2.34,0,4.26.92,5.76,2.75,1.5,1.83,2.25,4.4,2.25,7.69v43.11c0,3.9-1.71,5.85-5.13,5.85s-5.04-1.98-5.04-5.94Z"/>
    <path class="cls-2" d="m423,204.88c-1.8-.99-3.07-2.19-3.83-3.6-.75-1.41-1.06-2.75-.94-4,1.02.66,2.28,1.21,3.78,1.67,1.5.45,2.94.67,4.32.67,2.52,0,4.54-.66,6.07-1.98,1.53-1.32,2.29-2.97,2.29-4.95v-45.27c0-1.56.48-2.76,1.44-3.6.96-.84,2.19-1.26,3.69-1.26s2.71.42,3.65,1.26c.93.84,1.4,2.07,1.4,3.69v43.47c0,3.66-1.08,7.14-3.24,10.44-2.16,3.3-6.03,4.95-11.61,4.95-2.88,0-5.22-.49-7.02-1.48Z"/>
    <path class="cls-2" d="m499.95,185.76h-8.28v5.04c0,3.78-1.08,7.32-3.24,10.62-2.16,3.3-6.06,4.95-11.7,4.95-3.96,0-6.95-.94-8.96-2.83-2.01-1.89-3.05-4-3.1-6.34,1.02.6,2.26,1.15,3.73,1.67,1.47.51,2.93.76,4.37.76,2.46,0,4.51-.63,6.17-1.89,1.65-1.26,2.48-3,2.48-5.22l.09-6.75-8.82.18c-5.76,0-10.01-1.72-12.74-5.18-2.73-3.45-4.09-8.86-4.09-16.25,0-6.06.87-10.71,2.61-13.95,1.74-3.24,3.96-5.38,6.66-6.44,2.7-1.05,5.91-1.58,9.63-1.58s7.05.51,9.45,1.53c2.4,1.02,4.24,2.91,5.53,5.67,1.29,2.76,1.94,6.72,1.94,11.88v15.93h8.28v8.19Zm-25.92-8.19h7.38v-19.53c0-2.58-.68-4.44-2.03-5.58-1.35-1.14-3.05-1.71-5.08-1.71-2.94,0-5.04,1.11-6.3,3.33-1.26,2.22-1.89,5.58-1.89,10.08,0,8.94,2.64,13.41,7.92,13.41Z"/>
    <path class="cls-2" d="m547.47,177.57v8.19h-3.96c-3.36,0-6.3-.84-8.82-2.52-2.58,1.8-5.94,2.7-10.08,2.7-3.54,0-6.51-.66-8.91-1.98-2.1,1.2-4.62,1.8-7.56,1.8h-8.19v-8.19h5.58v-15.93c0-5.16.64-9.12,1.94-11.88,1.29-2.76,3.13-4.65,5.53-5.67,2.4-1.02,5.55-1.53,9.45-1.53s6.93.53,9.63,1.58c2.7,1.05,4.92,3.19,6.66,6.44,1.74,3.24,2.61,7.89,2.61,13.95,0,5.34-.72,9.69-2.16,13.05h8.28Zm-17.87-4.23c1.05-2.82,1.58-5.88,1.58-9.18,0-4.5-.65-7.86-1.94-10.08-1.29-2.22-3.41-3.33-6.34-3.33-2.04,0-3.74.57-5.08,1.71-1.35,1.14-2.03,3-2.03,5.58v19.53h7.38c3.24,0,5.38-1.41,6.43-4.23Z"/>
    <path class="cls-2" d="m578.97,177.57v8.19h-11.16c-3.24,0-6.12-.93-8.64-2.79-1.26.9-2.49,1.58-3.69,2.02-1.2.45-2.58.71-4.14.77h-3.87v-8.19h3.87c2.28-.06,4.47-.72,6.57-1.98v-27.81c0-1.56.42-2.82,1.26-3.78.84-.96,2.13-1.44,3.87-1.44s2.94.48,3.78,1.44c.84.96,1.26,2.25,1.26,3.87v23.22c0,1.92.27,3.48.81,4.68.54,1.2,1.35,1.8,2.43,1.8h7.65Zm-26.82-42.75c-1.08-1.08-1.62-2.37-1.62-3.87s.54-2.89,1.62-4c1.08-1.11,2.37-1.67,3.87-1.67s2.88.56,3.96,1.67c1.08,1.11,1.62,2.45,1.62,4s-.54,2.87-1.62,3.92c-1.08,1.05-2.4,1.58-3.96,1.58s-2.79-.54-3.87-1.62Zm13.95,0c-1.08-1.08-1.62-2.37-1.62-3.87s.54-2.89,1.62-4c1.08-1.11,2.4-1.67,3.96-1.67s2.86.56,3.92,1.67c1.05,1.11,1.58,2.45,1.58,4s-.53,2.87-1.58,3.92c-1.05,1.05-2.36,1.58-3.92,1.58s-2.88-.54-3.96-1.62Z"/>
    <path class="cls-2" d="m578.97,177.57h5.94c1.62,0,2.75-.69,3.38-2.07.63-1.38.94-3.3.94-5.76v-30.15c0-2.64-.44-4.59-1.3-5.85-.87-1.26-1.94-2.25-3.2-2.97.18-.9.88-1.86,2.12-2.88,1.23-1.02,2.75-1.53,4.54-1.53,2.34,0,4.27.9,5.81,2.7,1.53,1.8,2.29,4.38,2.29,7.74v33.21c-.06,4.8-1.21,8.63-3.46,11.48-2.25,2.85-5.3,4.27-9.14,4.27h-7.92v-8.19Z"/>
    <path class="cls-2" d="m614.34,179.82v-40.23c0-2.58-.44-4.5-1.31-5.76-.87-1.26-1.94-2.28-3.19-3.06.18-.84.87-1.78,2.07-2.83,1.2-1.05,2.73-1.57,4.59-1.57,2.34,0,4.26.92,5.76,2.75,1.5,1.83,2.25,4.4,2.25,7.69v43.11c0,3.9-1.71,5.85-5.13,5.85s-5.04-1.98-5.04-5.94Z"/>
    <path class="cls-2" d="m663.21,144.09c2.4,1.02,4.24,2.91,5.53,5.67,1.29,2.76,1.94,6.72,1.94,11.88v29.16c0,3.78-1.08,7.32-3.24,10.62-2.16,3.3-6.06,4.95-11.7,4.95-3.96,0-6.95-.94-8.96-2.83-2.01-1.89-3.05-4-3.1-6.34,1.02.6,2.26,1.15,3.73,1.67,1.47.51,2.93.76,4.37.76,2.46,0,4.51-.63,6.17-1.89,1.65-1.26,2.48-3,2.48-5.22l.09-6.75-8.82.18c-5.76,0-10.01-1.72-12.74-5.18-2.73-3.45-4.09-8.86-4.09-16.25,0-6.06.87-10.71,2.61-13.95,1.74-3.24,3.96-5.38,6.66-6.44,2.7-1.05,5.91-1.58,9.63-1.58s7.05.51,9.45,1.53Zm-10.17,33.48h7.38v-19.53c0-2.58-.68-4.44-2.03-5.58-1.35-1.14-3.05-1.71-5.08-1.71-2.94,0-5.04,1.11-6.3,3.33-1.26,2.22-1.89,5.58-1.89,10.08,0,8.94,2.64,13.41,7.92,13.41Z"/>
  </g>
</svg>