<?xml version="1.0" encoding="utf-8"?>
<!-- Generator: Adobe Illustrator 25.4.1, SVG Export Plug-In . SVG Version: 6.00 Build 0)  -->
<svg version="1.1" id="Layer_1" xmlns="http://www.w3.org/2000/svg" xmlns:xlink="http://www.w3.org/1999/xlink" x="0px" y="0px"
	 viewBox="0 0 316.6 106.7" style="enable-background:new 0 0 316.6 106.7;" xml:space="preserve">
<style type="text/css">
	.st0{fill:#FFFFFF;}
	
		.st1{clip-path:url(#SVGID_00000017492188874203755260000014173117828611881351_);fill:url(#SVGID_00000125579327249867628270000002040571351079465146_);}
	
		.st2{clip-path:url(#SVGID_00000017492188874203755260000014173117828611881351_);fill:url(#SVGID_00000074420502540953835260000009597793098122990482_);}
	
		.st3{clip-path:url(#SVGID_00000017492188874203755260000014173117828611881351_);fill:url(#SVGID_00000168095592532574496790000017276623912766249869_);}
</style>
<path d="M179.3,43.9c-0.1-0.2-0.1-0.2-0.2-0.2c-1.1,0-2.7,0-4.9,0.1s-3.6,0.1-4.7,0.1c0,0.1,0,0.2,0,0.2c0,7.6,0,11.8-0.2,12.8
	c-0.1,0.5-0.3,1.5-1.9,4.4c-1.7,3.2-2.5,3.8-3.3,3.8s-1.6-0.6-3.2-3.8c-0.7-1.3-1.3-2.6-1.8-4c-0.3-1.6-0.4-3.3-0.3-4.9
	c0-0.9,0.1-2.3,0.2-4.2s0.2-3.2,0.2-4.1V44c-1.6-0.1-2.8-0.1-3.7-0.1H153h-3.8V44c0,0.7,0.1,1.7,0.2,3.1s0.2,2.5,0.2,3.3
	c0,4.8-0.3,6.1-0.5,6.8c-0.5,1.4-1.1,2.8-1.9,4.2c-1.7,3.1-2.5,3.7-3.2,3.7s-1.2-0.3-3.1-3.7c-1.7-3-2-3.9-2-4.4
	c-0.2-1.4-0.2-3.6-0.2-6.5c0-0.7,0-1.8,0.1-3.2s0.1-2.4,0.1-3.1c0-0.1,0-0.1,0-0.2c-1.1,0-2.7,0-4.8-0.1s-3.8-0.1-4.9-0.1
	c-0.2,0-0.2,0-0.3,0.2c-0.1,0.6-0.3,2.5-0.3,7.8c0,3.5,0.3,6,0.9,7.4c1.4,3.2,3.1,6.4,4.9,9.4c3.8,6.4,5.1,7.2,5.4,7.3
	c1.1,0.2,2.2,0.2,3.2,0.2c3.3,0,3.9-0.5,4-0.6c1-1.1,3.1-4.4,6-9.6l0.9-1.6l0.9,1.6c2.8,5.1,4.8,8.3,6.1,9.6
	c0.2,0.2,0.5,0.4,0.8,0.5c1.2,0.2,2.4,0.2,3.7,0.2c3.1,0,3.8-0.5,4-0.7c1.9-2.5,3.6-5,5.1-7.8c1.7-2.7,3.2-5.5,4.6-8.4
	c0.5-1.3,0.8-3.8,0.8-7.4C179.7,46.4,179.5,44.5,179.3,43.9z M154.5,42.9h-0.1c-0.1,0-0.1,0,0,0H154.5z"/>
<path class="st0" d="M154.3,42.9L154.3,42.9L154.3,42.9z"/>
<path d="M220.9,44.7c-1-0.3-2.6-0.7-4.8-1.1c-1.5-0.3-3-0.6-4.5-0.7c-0.1,0.3-0.2,0.7-0.3,1c-0.3,1.4-0.7,2.5-1.7,2.5
	c-0.4,0-0.8-0.2-1-0.6c-2-2.4-5-3.7-8.1-3.5c-5.1,0-9,1.6-12,4.9s-4.2,7.3-4.2,12.6c-0.1,4.2,1.3,8.4,4,11.6
	c2.6,3.3,6.6,5.2,10.8,5.1c2.8,0,5.4-1.2,7.9-3.7c0.3-0.3,0.6-0.6,1-0.8l0.3-0.1h0.3c1,0.1,1.2,1.3,1.4,3c0,0.4,0.1,0.8,0.2,1.2
	c3.7,0,6.9-0.1,9.8-0.3c0.2,0,0.3,0,0.3-0.5c0-1.8-0.1-4.5-0.3-8.1s-0.3-6.4-0.3-8.2c0-4.6,0.4-9.3,1.2-13.8
	C220.8,44.9,220.8,44.8,220.9,44.7z M202.3,66.1c-1.8,0-3.6-0.7-4.9-2.1c-1.3-1.3-2-3.1-2-5c-0.1-1.9,0.6-3.6,1.9-5
	c2.8-2.7,7.2-2.7,10,0c2.6,2.9,2.6,7.2,0,10.1C206,65.4,204.2,66.1,202.3,66.1z"/>
<path class="st0" d="M208,53.4c-3.2-3-8.2-3-11.4,0c-2.9,3.2-2.9,8.2,0.1,11.4c1.4,1.5,3.5,2.4,5.6,2.4c2.1,0.1,4.2-0.8,5.7-2.3
	C210.9,61.6,210.9,56.6,208,53.4L208,53.4z M202.3,65.1c-1.6,0-3.1-0.6-4.1-1.8c-2.3-2.4-2.3-6.1-0.1-8.6c1.1-1.1,2.7-1.7,4.2-1.7
	c1.6-0.1,3.1,0.5,4.3,1.7c2.2,2.5,2.2,6.2,0,8.7C205.4,64.5,203.9,65.1,202.3,65.1z M208,53.3c-3.2-3-8.2-3-11.4,0
	c-2.9,3.2-2.9,8.2,0.1,11.4c1.4,1.5,3.5,2.4,5.6,2.4c2.1,0.1,4.2-0.8,5.7-2.3C210.9,61.6,210.9,56.6,208,53.3L208,53.3z M202.3,65.1
	c-1.6,0-3.1-0.6-4.1-1.8c-2.3-2.4-2.3-6.1-0.1-8.6c1.1-1.1,2.7-1.7,4.2-1.7c1.6-0.1,3.1,0.5,4.3,1.7c2.2,2.5,2.2,6.2,0,8.7
	C205.4,64.5,203.9,65.1,202.3,65.1z M208,53.3c-3.2-3-8.2-3-11.4,0c-2.9,3.2-2.9,8.2,0.1,11.4c1.4,1.5,3.5,2.4,5.6,2.4
	c2.1,0.1,4.2-0.8,5.7-2.3C210.9,61.6,210.9,56.6,208,53.3L208,53.3z M202.3,65.1c-1.6,0-3.1-0.6-4.1-1.8c-2.3-2.4-2.3-6.1-0.1-8.6
	c1.1-1.1,2.7-1.7,4.2-1.7c1.6-0.1,3.1,0.5,4.3,1.7c2.2,2.5,2.2,6.2,0,8.7C205.4,64.5,203.9,65.1,202.3,65.1z"/>
<path d="M243.2,67.1h-2.5l1.8-1.7c11-10.7,13-13.3,13.3-13.9v-7.6h-0.2c-1.3,0-3.2,0-5.8,0.1s-4.5,0.1-5.8,0.1
	c-3.1,0-6.3-0.1-9.4-0.4l-4.2-0.5h-0.2c-0.2,2-0.6,3.9-1.1,5.8c-0.6,2.2-0.9,3.4-1,4c0.9,0,2,0,3.4-0.1c1.8-0.1,3.1-0.1,4-0.1
	c0.6,0,1.4,0,2.6,0.1s1.9,0.1,2.5,0.1h2.3l-1.6,1.6c-4.2,4.5-8.7,8.8-13.4,12.8c-0.1,0.1-0.1,0.1-0.2,0.2c0,0.6,0.1,1.1,0.2,1.7
	c0.1,0.7,0.2,1.4,0.2,2.2c0,0.4,0,1.2-0.1,2.4c0,0.9,0,1.7,0,2.2c0.5,0,1.2-0.1,2.1-0.2l2.5-0.2c1.7-0.1,4.5-0.2,8.3-0.2
	c3.4,0,5.9,0,7.4,0.1c0.7,0,1.9,0.1,3.5,0.3c1.4,0.2,2.4,0.2,3.2,0.2c0.4-2.2,0.7-3.8,0.8-5c0.5-2.3,0.9-3.8,1.2-4.8
	C252.6,67,247.9,67.2,243.2,67.1z"/>
<path d="M275,43.8c-0.7,0-1.6,0.1-2.8,0.2c-1.4,0.1-2.5,0.2-3.2,0.2s-1.8-0.1-3.2-0.2s-2.3-0.2-2.9-0.2c0,0.1,0,0.2,0,0.3
	c0.6,5.4,0.9,10.8,0.8,16.3c0,1.7,0,4.1-0.1,7.5s-0.1,5.8-0.1,7.4c0,0.2,0,0.4,0,0.5h0.2c1.8,0.2,3.6,0.3,5.3,0.2
	c1.8,0.1,3.5,0,5.3-0.2h0.1c0-1.7,0-4.3-0.1-7.6s-0.1-6-0.1-7.8c0-5.4,0.2-10.9,0.8-16.3C275,43.9,275,43.8,275,43.8z M273.3,30
	c-1.2-1-2.7-1.5-4.2-1.5s-3.1,0.5-4.3,1.4c-2.1,1.8-2.4,4.9-0.7,7c0.2,0.2,0.4,0.4,0.6,0.6c1.2,0.9,2.8,1.4,4.3,1.4
	c4.1,0,6-1.7,6-5.2C275.1,32.3,274.5,30.9,273.3,30z"/>
<path d="M316.6,68.7c0-3.1,0-5.4,0-7V50.4c0.1-2.4-1-4.6-3-6c-2.1-1.4-4.5-2.1-7-2c-2.5,0.2-4.8,1-6.9,2.3c-2.8,1.7-4.3,2.6-4.3,2.6
	h-0.8l-0.1-0.4c-0.5-0.9-0.7-1.9-0.7-2.9c0-0.5-0.1-1-0.2-1.4c-0.7,0.1-2.3,0.4-5.6,1c-2.3,0.3-4.3,0.6-5.7,0.8v0.2
	c1.1,4.6,1.6,9.4,1.4,14.2c0,1.9,0,4.7,0,8.4c0,3.7,0,6.5,0,8.4v0.1c0.1,0,0.2,0.1,0.2,0.1c1.8,0.2,3.5,0.3,5.3,0.2
	c2.5,0,4.2,0,5-0.1c0.1,0,0.1,0,0.2,0c0-0.1,0-0.2,0-0.3V56.1c0-1.2,0.8-2.4,2.4-3.5c1.1-0.8,2.4-1.3,3.8-1.4c2,0,5.2,0.8,5.2,5.9
	c0,0.9,0,2.2,0.1,3.9s0.1,3.1,0.1,4c0,1.2,0,2.8-0.1,5.1s-0.1,4-0.1,5c0,0.4,0.1,0.5,0.3,0.5c1.8,0.2,3.6,0.3,5.4,0.2
	c1.7,0,3.4,0,5.1-0.1h0.1v-0.1C316.6,74.1,316.6,71.8,316.6,68.7z"/>
<g>
	<defs>
		<rect id="SVGID_1_" x="-163.4" y="-11.4" width="296.8" height="130.7"/>
	</defs>
	<clipPath id="SVGID_00000099656279670949885010000015654961301822144137_">
		<use xlink:href="#SVGID_1_"  style="overflow:visible;"/>
	</clipPath>
	
		<linearGradient id="SVGID_00000016077810885167530510000005327348445922149806_" gradientUnits="userSpaceOnUse" x1="82.8382" y1="90.3672" x2="26.9429" y2="16.1139" gradientTransform="matrix(1 0 0 -1 0 108)">
		<stop  offset="0" style="stop-color:#2DA4E0"/>
		<stop  offset="1" style="stop-color:#2D51E0"/>
	</linearGradient>
	
		<path style="clip-path:url(#SVGID_00000099656279670949885010000015654961301822144137_);fill:url(#SVGID_00000016077810885167530510000005327348445922149806_);" d="
		M80.5,87.6c-6.1,4.6-13.4,7.4-21,8.1c2.5-2.4,4.8-5,6.9-7.8c3.8-4.9,10.7-14.2,11.3-27c0.1-3.1,0.4-9.7-3.3-16.5
		c-0.6-1.1-1.3-2.2-2-3.2c-2.5-3.3-5.8-5.8-9.7-7.3c-3.9-1.4-8.1-1.7-12.1-0.8c-4,0.9-7.7,2.9-10.6,5.9c-2.9,2.9-4.9,6.7-5.7,10.7
		c-0.8,4-0.5,8.2,1,12.1c1.5,3.8,4.1,7.2,7.4,9.6c3.3,2.4,7.3,3.8,11.4,4c4.1,0.2,8.2-0.8,11.8-2.9c-1,0.9-2,1.7-3.1,2.5
		c-10.2,7.7-23,11.3-35.7,10.1c-2-1.8-3.9-3.8-5.5-6c-6.1-8.2-9.1-18.4-8.2-28.6c0.9-10.2,5.5-19.8,12.9-26.8S43.8,12.6,54,12.3
		c10.2-0.3,20.3,3.2,28.1,9.8c2.5,2.1,4.7,4.4,6.6,6.9c3.3,4.4,5.8,9.4,7.2,14.7c1.4,5.3,1.7,10.9,0.9,16.3
		c-0.8,5.4-2.6,10.7-5.4,15.4C88.7,80.2,84.9,84.3,80.5,87.6z"/>
	
		<linearGradient id="SVGID_00000093870226154876596870000006928022615980267920_" gradientUnits="userSpaceOnUse" x1="60.5701" y1="60.7976" x2="50.0937" y2="46.9378" gradientTransform="matrix(1 0 0 -1 0 108)">
		<stop  offset="0" style="stop-color:#2DA4E0"/>
		<stop  offset="1" style="stop-color:#2D51E0"/>
	</linearGradient>
	
		<path style="clip-path:url(#SVGID_00000099656279670949885010000015654961301822144137_);fill:url(#SVGID_00000093870226154876596870000006928022615980267920_);" d="
		M55.4,61.8c4.3,0,7.8-3.5,7.8-7.8c0-4.3-3.5-7.8-7.8-7.8c-4.3,0-7.8,3.5-7.8,7.8C47.6,58.3,51.1,61.8,55.4,61.8z"/>
	
		<linearGradient id="SVGID_00000065771970410701012240000011185185147770769551_" gradientUnits="userSpaceOnUse" x1="90.1507" y1="99.9504" x2="19.3411" y2="6.265" gradientTransform="matrix(1 0 0 -1 0 108)">
		<stop  offset="0" style="stop-color:#2DA4E0"/>
		<stop  offset="1" style="stop-color:#2D51E0"/>
	</linearGradient>
	
		<path style="clip-path:url(#SVGID_00000099656279670949885010000015654961301822144137_);fill:url(#SVGID_00000065771970410701012240000011185185147770769551_);" d="
		M55.4,106.8c-10.4,0-20.6-3.1-29.3-8.9c-8.7-5.8-15.4-14-19.4-23.7c-4-9.6-5-20.3-3-30.5c2-10.2,7.1-19.6,14.4-27
		c7.4-7.4,16.8-12.4,27-14.4c10.2-2,20.9-1,30.5,3c9.6,4,17.9,10.8,23.7,19.4c5.8,8.7,8.9,18.9,8.9,29.3c0,14-5.6,27.4-15.5,37.3
		C82.9,101.2,69.4,106.8,55.4,106.8z M55.4,7.3c-9.2,0-18.3,2.7-25.9,7.9c-7.7,5.1-13.7,12.4-17.2,20.9s-4.5,17.9-2.7,27
		c1.8,9.1,6.2,17.4,12.8,23.9c6.5,6.5,14.8,11,23.9,12.8c9.1,1.8,18.4,0.9,27-2.7c8.5-3.5,15.8-9.5,20.9-17.2
		c5.1-7.7,7.9-16.7,7.9-25.9c0-12.4-4.9-24.2-13.7-33C79.7,12.3,67.8,7.4,55.4,7.3z"/>
</g>
</svg>
